<?xml version="1.0" encoding="UTF-8" standalone="no"?><svg width="930" height="87" viewBox="0 0 930 87" fill="none" xmlns="http://www.w3.org/2000/svg">
<path d="M76.0215 36.1641L75.0267 36.2661L75.1188 37.1641H76.0215V36.1641ZM71.6709 58.5615L72.3059 59.3341L72.307 59.3332L71.6709 58.5615ZM76.2363 49.4307V48.4307H75.3322L75.2414 49.3303L76.2363 49.4307ZM114.264 49.4307L115.263 49.4542L115.287 48.4307H114.264V49.4307ZM15.4355 75.5879L14.839 76.3905L14.8425 76.393L15.4355 75.5879ZM114.049 36.1641V37.1641H115.074L115.049 36.1393L114.049 36.1641ZM77.0163 36.062C76.6261 32.2584 74.7738 29.3544 71.5037 27.4452C68.2933 25.5709 63.7818 24.6904 58.082 24.6904V26.6904C63.6258 26.6904 67.7259 27.5555 70.4953 29.1724C73.2051 30.7545 74.7007 33.0873 75.0267 36.2661L77.0163 36.062ZM58.082 24.6904C51.1006 24.6904 45.6778 26.2188 41.9941 29.4504C38.2854 32.704 36.5107 37.531 36.5107 43.7373H38.5107C38.5107 37.9123 40.1646 33.7159 43.313 30.9539C46.4864 28.1699 51.3492 26.6904 58.082 26.6904V24.6904ZM36.5107 43.7373C36.5107 49.9436 38.2854 54.7706 41.9941 58.0242C45.6778 61.2558 51.1006 62.7842 58.082 62.7842V60.7842C51.3492 60.7842 46.4864 59.3047 43.313 56.5207C40.1646 53.7587 38.5107 49.5623 38.5107 43.7373H36.5107ZM58.082 62.7842C64.5775 62.7842 69.4105 61.7138 72.3059 59.3341L71.0359 57.789C68.7034 59.7061 64.4772 60.7842 58.082 60.7842V62.7842ZM72.307 59.3332C75.1895 56.957 76.815 53.6558 77.2313 49.5311L75.2414 49.3303C74.8699 53.0115 73.4517 55.7976 71.0348 57.7899L72.307 59.3332ZM76.2363 50.4307H114.264V48.4307H76.2363V50.4307ZM113.264 49.4071C112.984 61.2957 108.393 70.1051 99.5308 75.9902L100.637 77.6563C110.108 71.3669 114.97 61.9146 115.263 49.4542L113.264 49.4071ZM99.5308 75.9902C90.6077 81.9157 76.8442 84.9541 58.082 84.9541V86.9541C76.9891 86.9541 91.227 83.9053 100.637 77.6563L99.5308 75.9902ZM58.082 84.9541C39.1219 84.9541 25.1599 81.5092 16.0286 74.7828L14.8425 76.393C24.4742 83.4882 38.9432 86.9541 58.082 86.9541V84.9541ZM16.0321 74.7853C6.99838 68.0706 2.41699 57.7884 2.41699 43.7373H0.416992C0.416992 58.2605 5.18131 69.212 14.839 76.3905L16.0321 74.7853ZM2.41699 43.7373C2.41699 29.6862 6.99838 19.404 16.0321 12.6893L14.839 11.0841C5.18131 18.2627 0.416992 29.2142 0.416992 43.7373H2.41699ZM16.0321 12.6893C25.1262 5.92971 39.0859 2.4668 58.082 2.4668V0.466797C38.9076 0.466797 24.4363 3.9505 14.839 11.0841L16.0321 12.6893ZM58.082 2.4668C76.3767 2.4668 90.0047 5.35197 99.1005 10.991C108.124 16.585 112.77 24.9384 113.049 36.1888L115.049 36.1393C114.754 24.2582 109.787 15.263 100.154 9.2912C90.5946 3.3645 76.5256 0.466797 58.082 0.466797V2.4668ZM114.049 35.1641H76.0215V37.1641H114.049V35.1641ZM189.244 4.47461V3.47461H188.244V4.47461H189.244ZM222.223 4.47461H223.223V3.47461H222.223V4.47461ZM218.785 66.6182L217.879 66.1949L217.877 66.2004L218.785 66.6182ZM192.735 84.0205L192.543 83.0392L192.537 83.0404L192.735 84.0205ZM150.035 84.0205L150.234 83.0404L150.229 83.0395L150.035 84.0205ZM134.244 78.1123L133.726 78.9674L134.244 78.1123ZM123.985 66.6182L123.077 67.036L123.079 67.0414L123.985 66.6182ZM120.602 4.47461V3.47461H119.602V4.47461H120.602ZM153.58 4.47461H154.58V3.47461H153.58V4.47461ZM158.038 58.7764L157.486 59.61L157.493 59.6146L158.038 58.7764ZM184.786 58.7764L185.331 59.6146L185.339 59.61L184.786 58.7764ZM189.244 5.47461H222.223V3.47461H189.244V5.47461ZM221.223 4.47461V48.6787H223.223V4.47461H221.223ZM221.223 48.6787C221.223 55.629 220.093 61.4556 217.879 66.1949L219.691 67.0414C222.061 61.9696 223.223 55.8365 223.223 48.6787H221.223ZM217.877 66.2004C215.703 70.9275 212.436 74.6053 208.062 77.2572L209.099 78.9674C213.82 76.105 217.356 72.1201 219.694 67.036L217.877 66.2004ZM208.062 77.2572C203.628 79.945 198.46 81.8768 192.543 83.0393L192.928 85.0018C199.042 83.8009 204.437 81.7939 209.099 78.9674L208.062 77.2572ZM192.537 83.0404C186.604 84.241 179.548 84.8467 171.358 84.8467V86.8467C179.64 86.8467 186.835 86.2349 192.934 85.0006L192.537 83.0404ZM171.358 84.8467C163.204 84.8467 156.166 84.2411 150.234 83.0404L149.837 85.0006C155.935 86.2349 163.113 86.8467 171.358 86.8467V84.8467ZM150.229 83.0395C144.347 81.8772 139.197 79.9456 134.763 77.2572L133.726 78.9674C138.387 81.7934 143.763 83.8005 149.841 85.0015L150.229 83.0395ZM134.763 77.2572C130.387 74.6045 127.101 70.9249 124.891 66.1949L123.079 67.0414C125.453 72.1227 129.006 76.1058 133.726 78.9674L134.763 77.2572ZM124.894 66.2004C122.714 61.4595 121.602 55.6308 121.602 48.6787H119.602C119.602 55.8347 120.745 61.9657 123.077 67.036L124.894 66.2004ZM121.602 48.6787V4.47461H119.602V48.6787H121.602ZM120.602 5.47461H153.58V3.47461H120.602V5.47461ZM152.58 4.47461V48.5713H154.58V4.47461H152.58ZM152.58 48.5713C152.58 53.609 154.14 57.3928 157.486 59.61L158.59 57.9428C155.992 56.2211 154.58 53.2015 154.58 48.5713H152.58ZM157.493 59.6146C160.703 61.7033 165.392 62.6768 171.412 62.6768V60.6768C165.545 60.6768 161.317 59.7166 158.583 57.9382L157.493 59.6146ZM171.412 62.6768C177.433 62.6768 182.121 61.7033 185.331 59.6146L184.241 57.9382C181.507 59.7166 177.28 60.6768 171.412 60.6768V62.6768ZM185.339 59.61C188.684 57.3928 190.244 53.609 190.244 48.5713H188.244C188.244 53.2015 186.832 56.2211 184.234 57.9428L185.339 59.61ZM190.244 48.5713V4.47461H188.244V48.5713H190.244ZM316.646 54.1572H315.646V54.4407L315.795 54.6819L316.646 54.1572ZM334.425 83V84H336.216L335.276 82.4753L334.425 83ZM298.009 83L297.141 83.4968L297.429 84H298.009V83ZM285.279 60.7637L286.147 60.2669L285.859 59.7637H285.279V60.7637ZM262.936 60.7637V59.7637H261.936V60.7637H262.936ZM262.936 83V84H263.936V83H262.936ZM229.957 83H228.957V84H229.957V83ZM229.957 4.47461V3.47461H228.957V4.47461H229.957ZM316.646 53.083L316.39 52.1164L315.646 52.3137V53.083H316.646ZM293.98 39.9775L294.618 40.7476L294.621 40.7458L293.98 39.9775ZM294.034 29.7725L293.36 30.5114L293.372 30.5217L293.383 30.5317L294.034 29.7725ZM262.936 28.1074V27.1074H261.936V28.1074H262.936ZM262.936 41.5352H261.936V42.5352H262.936V41.5352ZM315.795 54.6819L333.574 83.5247L335.276 82.4753L317.498 53.6325L315.795 54.6819ZM334.425 82H298.009V84H334.425V82ZM298.877 82.5032L286.147 60.2669L284.411 61.2605L297.141 83.4968L298.877 82.5032ZM285.279 59.7637H262.936V61.7637H285.279V59.7637ZM261.936 60.7637V83H263.936V60.7637H261.936ZM262.936 82H229.957V84H262.936V82ZM230.957 83V4.47461H228.957V83H230.957ZM229.957 5.47461H297.687V3.47461H229.957V5.47461ZM297.687 5.47461C310.371 5.47461 319.089 7.73037 324.109 12.0036L325.405 10.4808C319.825 5.73057 310.496 3.47461 297.687 3.47461V5.47461ZM324.109 12.0036C329.123 16.2723 331.706 22.7215 331.706 31.5449H333.706C333.706 22.3215 330.99 15.2355 325.405 10.4808L324.109 12.0036ZM331.706 31.5449C331.706 37.6446 330.372 42.1864 327.846 45.3107L329.402 46.5682C332.318 42.9607 333.706 37.9062 333.706 31.5449H331.706ZM327.846 45.3107C325.29 48.4732 321.502 50.7602 316.39 52.1164L316.903 54.0496C322.318 52.6128 326.516 50.1375 329.402 46.5682L327.846 45.3107ZM315.646 53.083V54.1572H317.646V53.083H315.646ZM287.589 42.5352C290.656 42.5352 293.087 42.0168 294.618 40.7476L293.342 39.2075C292.368 40.0151 290.537 40.5352 287.589 40.5352V42.5352ZM294.621 40.7458C296.213 39.4187 296.914 37.4026 296.914 34.9287H294.914C294.914 37.0381 294.326 38.3879 293.34 39.2093L294.621 40.7458ZM296.914 34.9287C296.914 32.4035 296.243 30.3482 294.685 29.0132L293.383 30.5317C294.332 31.3451 294.914 32.7273 294.914 34.9287H296.914ZM294.708 29.0335C293.202 27.6602 290.726 27.1074 287.589 27.1074V29.1074C290.611 29.1074 292.432 29.6647 293.36 30.5114L294.708 29.0335ZM287.589 27.1074H262.936V29.1074H287.589V27.1074ZM261.936 28.1074V41.5352H263.936V28.1074H261.936ZM262.936 42.5352H287.589V40.5352H262.936V42.5352ZM425.035 54.1572H424.035V54.4407L424.184 54.6819L425.035 54.1572ZM442.813 83V84H444.605L443.665 82.4753L442.813 83ZM406.397 83L405.53 83.4968L405.818 84H406.397V83ZM393.668 60.7637L394.536 60.2669L394.248 59.7637H393.668V60.7637ZM371.324 60.7637V59.7637H370.324V60.7637H371.324ZM371.324 83V84H372.324V83H371.324ZM338.346 83H337.346V84H338.346V83ZM338.346 4.47461V3.47461H337.346V4.47461H338.346ZM425.035 53.083L424.779 52.1164L424.035 52.3137V53.083H425.035ZM402.369 39.9775L403.007 40.7476L403.009 40.7458L402.369 39.9775ZM402.423 29.7725L401.749 30.5114L401.76 30.5217L401.772 30.5317L402.423 29.7725ZM371.324 28.1074V27.1074H370.324V28.1074H371.324ZM371.324 41.5352H370.324V42.5352H371.324V41.5352ZM424.184 54.6819L441.962 83.5247L443.665 82.4753L425.886 53.6325L424.184 54.6819ZM442.813 82H406.397V84H442.813V82ZM407.265 82.5032L394.536 60.2669L392.8 61.2605L405.53 83.4968L407.265 82.5032ZM393.668 59.7637H371.324V61.7637H393.668V59.7637ZM370.324 60.7637V83H372.324V60.7637H370.324ZM371.324 82H338.346V84H371.324V82ZM339.346 83V4.47461H337.346V83H339.346ZM338.346 5.47461H406.075V3.47461H338.346V5.47461ZM406.075 5.47461C418.76 5.47461 427.478 7.73037 432.497 12.0036L433.794 10.4808C428.214 5.73057 418.885 3.47461 406.075 3.47461V5.47461ZM432.497 12.0036C437.511 16.2723 440.095 22.7215 440.095 31.5449H442.095C442.095 22.3215 439.379 15.2355 433.794 10.4808L432.497 12.0036ZM440.095 31.5449C440.095 37.6446 438.761 42.1864 436.235 45.3107L437.79 46.5682C440.707 42.9607 442.095 37.9062 442.095 31.5449H440.095ZM436.235 45.3107C433.678 48.4732 429.891 50.7602 424.779 52.1164L425.292 54.0496C430.707 52.6128 434.904 50.1375 437.79 46.5682L436.235 45.3107ZM424.035 53.083V54.1572H426.035V53.083H424.035ZM395.978 42.5352C399.045 42.5352 401.475 42.0168 403.007 40.7476L401.731 39.2075C400.756 40.0151 398.926 40.5352 395.978 40.5352V42.5352ZM403.009 40.7458C404.602 39.4187 405.303 37.4026 405.303 34.9287H403.303C403.303 37.0381 402.715 38.3879 401.729 39.2093L403.009 40.7458ZM405.303 34.9287C405.303 32.4035 404.631 30.3482 403.074 29.0132L401.772 30.5317C402.721 31.3451 403.303 32.7273 403.303 34.9287H405.303ZM403.097 29.0335C401.59 27.6602 399.114 27.1074 395.978 27.1074V29.1074C399 29.1074 400.82 29.6647 401.749 30.5114L403.097 29.0335ZM395.978 27.1074H371.324V29.1074H395.978V27.1074ZM370.324 28.1074V41.5352H372.324V28.1074H370.324ZM371.324 42.5352H395.978V40.5352H371.324V42.5352ZM479.713 24.4551V23.4551H478.713V24.4551H479.713ZM479.713 34.3916H478.713V35.3916H479.713V34.3916ZM532.833 34.3916H533.833V33.3916H532.833V34.3916ZM532.833 52.5459V53.5459H533.833V52.5459H532.833ZM479.713 52.5459V51.5459H478.713V52.5459H479.713ZM479.713 63.2881H478.713V64.2881H479.713V63.2881ZM536.378 63.2881H537.378V62.2881H536.378V63.2881ZM536.378 83V84H537.378V83H536.378ZM446.734 83H445.734V84H446.734V83ZM446.734 4.47461V3.47461H445.734V4.47461H446.734ZM535.733 4.47461H536.733V3.47461H535.733V4.47461ZM535.733 24.4551V25.4551H536.733V24.4551H535.733ZM478.713 24.4551V34.3916H480.713V24.4551H478.713ZM479.713 35.3916H532.833V33.3916H479.713V35.3916ZM531.833 34.3916V52.5459H533.833V34.3916H531.833ZM532.833 51.5459H479.713V53.5459H532.833V51.5459ZM478.713 52.5459V63.2881H480.713V52.5459H478.713ZM479.713 64.2881H536.378V62.2881H479.713V64.2881ZM535.378 63.2881V83H537.378V63.2881H535.378ZM536.378 82H446.734V84H536.378V82ZM447.734 83V4.47461H445.734V83H447.734ZM446.734 5.47461H535.733V3.47461H446.734V5.47461ZM534.733 4.47461V24.4551H536.733V4.47461H534.733ZM535.733 23.4551H479.713V25.4551H535.733V23.4551ZM614.259 4.47461V3.47461H613.259V4.47461H614.259ZM645.25 4.47461H646.25V3.47461H645.25V4.47461ZM645.25 83V84H646.25V83H645.25ZM607.76 83L606.977 83.6227L607.278 84H607.76V83ZM574.674 41.4277L575.456 40.805L575.156 40.4277H574.674V41.4277ZM573.976 41.4277V40.4277H572.976V41.4277H573.976ZM573.976 83V84H574.976V83H573.976ZM542.984 83H541.984V84H542.984V83ZM542.984 4.47461V3.47461H541.984V4.47461H542.984ZM580.904 4.47461L581.688 3.85291L581.387 3.47461H580.904V4.47461ZM613.561 45.6172L612.777 46.2389L613.078 46.6172H613.561V45.6172ZM614.259 45.6172V46.6172H615.259V45.6172H614.259ZM614.259 5.47461H645.25V3.47461H614.259V5.47461ZM644.25 4.47461V83H646.25V4.47461H644.25ZM645.25 82H607.76V84H645.25V82ZM608.542 82.3773L575.456 40.805L573.891 42.0505L606.977 83.6227L608.542 82.3773ZM574.674 40.4277H573.976V42.4277H574.674V40.4277ZM572.976 41.4277V83H574.976V41.4277H572.976ZM573.976 82H542.984V84H573.976V82ZM543.984 83V4.47461H541.984V83H543.984ZM542.984 5.47461H580.904V3.47461H542.984V5.47461ZM580.121 5.09631L612.777 46.2389L614.344 44.9955L581.688 3.85291L580.121 5.09631ZM613.561 46.6172H614.259V44.6172H613.561V46.6172ZM615.259 45.6172V4.47461H613.259V45.6172H615.259ZM745.26 4.47461H746.26V3.47461H745.26V4.47461ZM745.26 28V29H746.26V28H745.26ZM714.591 28V27H713.591V28H714.591ZM714.591 83V84H715.591V83H714.591ZM681.559 83H680.559V84H681.559V83ZM681.559 28H682.559V27H681.559V28ZM650.89 28H649.89V29H650.89V28ZM650.89 4.47461V3.47461H649.89V4.47461H650.89ZM744.26 4.47461V28H746.26V4.47461H744.26ZM745.26 27H714.591V29H745.26V27ZM713.591 28V83H715.591V28H713.591ZM714.591 82H681.559V84H714.591V82ZM682.559 83V28H680.559V83H682.559ZM681.559 27H650.89V29H681.559V27ZM651.89 28V4.47461H649.89V28H651.89ZM650.89 5.47461H745.26V3.47461H650.89V5.47461ZM838.502 83V84H839.502V83H838.502ZM750.846 83H749.846V84H750.846V83ZM750.846 4.47461V3.47461H749.846V4.47461H750.846ZM783.824 4.47461H784.824V3.47461H783.824V4.47461ZM783.824 59.9043H782.824V60.9043H783.824V59.9043ZM838.502 59.9043H839.502V58.9043H838.502V59.9043ZM838.502 82H750.846V84H838.502V82ZM751.846 83V4.47461H749.846V83H751.846ZM750.846 5.47461H783.824V3.47461H750.846V5.47461ZM782.824 4.47461V59.9043H784.824V4.47461H782.824ZM783.824 60.9043H838.502V58.9043H783.824V60.9043ZM837.502 59.9043V83H839.502V59.9043H837.502ZM927.179 4.47461L927.988 5.06196L929.14 3.47461H927.179V4.47461ZM888.238 58.1318L887.429 57.5445L887.238 57.8072V58.1318H888.238ZM888.238 83V84H889.238V83H888.238ZM855.26 83H854.26V84H855.26V83ZM855.26 58.1318H856.26V57.8072L856.069 57.5445L855.26 58.1318ZM816.319 4.47461V3.47461H814.358L815.51 5.06196L816.319 4.47461ZM854.293 4.47461L855.138 3.94018L854.844 3.47461H854.293V4.47461ZM871.749 32.082L870.904 32.6165L871.745 33.9471L872.592 32.62L871.749 32.082ZM889.366 4.47461V3.47461H888.818L888.523 3.93667L889.366 4.47461ZM926.369 3.88726L887.429 57.5445L889.048 58.7192L927.988 5.06196L926.369 3.88726ZM887.238 58.1318V83H889.238V58.1318H887.238ZM888.238 82H855.26V84H888.238V82ZM856.26 83V58.1318H854.26V83H856.26ZM856.069 57.5445L817.129 3.88726L815.51 5.06196L854.45 58.7192L856.069 57.5445ZM816.319 5.47461H854.293V3.47461H816.319V5.47461ZM853.448 5.00904L870.904 32.6165L872.594 31.5476L855.138 3.94018L853.448 5.00904ZM872.592 32.62L890.209 5.01255L888.523 3.93667L870.906 31.5441L872.592 32.62ZM889.366 5.47461H927.179V3.47461H889.366V5.47461Z" fill="white"/>
</svg>
