<?xml version="1.0" encoding="UTF-8" standalone="no"?><svg width="80" height="16" viewBox="0 0 80 16" fill="none" xmlns="http://www.w3.org/2000/svg">
<path d="M69 12L79 2M79 2H69M79 2V12" stroke="white" stroke-width="1.8" stroke-linecap="round" stroke-linejoin="round"/>
<path d="M8.672 3.23202L7.264 3.72802C7.18934 3.23735 6.94934 2.79468 6.544 2.40002C6.13867 1.99468 5.57867 1.79202 4.864 1.79202C4.23467 1.79202 3.712 1.97335 3.296 2.33602C2.88 2.69868 2.672 3.14668 2.672 3.68002C2.672 4.09602 2.79467 4.44802 3.04 4.73602C3.296 5.02402 3.65867 5.22135 4.128 5.32802L5.824 5.69602C6.76267 5.89868 7.488 6.28268 8 6.84802C8.512 7.40268 8.768 8.08002 8.768 8.88002C8.768 9.79735 8.40534 10.5867 7.68 11.248C6.95467 11.9093 6.01067 12.24 4.848 12.24C3.57867 12.24 2.58134 11.9093 1.856 11.248C1.14134 10.576 0.725335 9.78135 0.608002 8.86402L2.112 8.38402C2.176 9.06668 2.44267 9.64268 2.912 10.112C3.38134 10.5813 4.02133 10.816 4.832 10.816C5.57867 10.816 6.15467 10.6453 6.56 10.304C6.96534 9.96268 7.168 9.53068 7.168 9.00802C7.168 8.58135 7.024 8.21335 6.736 7.90402C6.448 7.58402 6.02667 7.36535 5.472 7.24802L3.856 6.89602C3.01334 6.71468 2.34133 6.35735 1.84 5.82402C1.33867 5.29068 1.088 4.61335 1.088 3.79202C1.088 2.89602 1.45067 2.11202 2.176 1.44002C2.912 0.757349 3.79734 0.416016 4.832 0.416016C5.99467 0.416016 6.88533 0.698682 7.504 1.26402C8.12267 1.82935 8.512 2.48535 8.672 3.23202Z" fill="white"/>
<path d="M15.4301 11.072C15.2275 11.456 14.9181 11.7493 14.5021 11.952C14.0861 12.144 13.6381 12.24 13.1581 12.24C12.2835 12.24 11.5848 11.952 11.0621 11.376C10.5395 10.7893 10.2781 10.048 10.2781 9.15202V4.30402H11.7821V8.92802C11.7821 9.50402 11.9208 9.97868 12.1981 10.352C12.4861 10.7253 12.9288 10.912 13.5261 10.912C14.1235 10.912 14.5768 10.736 14.8861 10.384C15.1955 10.0213 15.3501 9.54135 15.3501 8.94402V4.30402H16.8541V10.576C16.8541 11.0773 16.8808 11.552 16.9341 12H15.4941C15.4515 11.7653 15.4301 11.456 15.4301 11.072Z" fill="white"/>
<path d="M20.9086 15.04H19.4206V4.30402H20.8766V5.50402C21.1006 5.09868 21.4366 4.76802 21.8846 4.51202C22.3326 4.25602 22.8553 4.12802 23.4526 4.12802C24.562 4.12802 25.426 4.50668 26.0446 5.26402C26.674 6.02135 26.9886 6.98135 26.9886 8.14402C26.9886 9.31735 26.6633 10.288 26.0126 11.056C25.3726 11.824 24.5033 12.208 23.4046 12.208C22.8393 12.208 22.338 12.0907 21.9006 11.856C21.4633 11.6213 21.1326 11.3227 20.9086 10.96V15.04ZM25.4526 8.14402C25.4526 7.36535 25.2446 6.72535 24.8286 6.22402C24.4233 5.71202 23.874 5.45602 23.1806 5.45602C22.498 5.45602 21.9433 5.71202 21.5166 6.22402C21.1006 6.72535 20.8926 7.36535 20.8926 8.14402C20.8926 8.94402 21.1006 9.60002 21.5166 10.112C21.9433 10.6133 22.498 10.864 23.1806 10.864C23.8633 10.864 24.4126 10.6133 24.8286 10.112C25.2446 9.60002 25.4526 8.94402 25.4526 8.14402Z" fill="white"/>
<path d="M30.393 15.04H28.905V4.30402H30.361V5.50402C30.585 5.09868 30.921 4.76802 31.369 4.51202C31.817 4.25602 32.3397 4.12802 32.937 4.12802C34.0463 4.12802 34.9103 4.50668 35.529 5.26402C36.1583 6.02135 36.473 6.98135 36.473 8.14402C36.473 9.31735 36.1477 10.288 35.497 11.056C34.857 11.824 33.9877 12.208 32.889 12.208C32.3237 12.208 31.8223 12.0907 31.385 11.856C30.9477 11.6213 30.617 11.3227 30.393 10.96V15.04ZM34.937 8.14402C34.937 7.36535 34.729 6.72535 34.313 6.22402C33.9077 5.71202 33.3583 5.45602 32.665 5.45602C31.9823 5.45602 31.4277 5.71202 31.001 6.22402C30.585 6.72535 30.377 7.36535 30.377 8.14402C30.377 8.94402 30.585 9.60002 31.001 10.112C31.4277 10.6133 31.9823 10.864 32.665 10.864C33.3477 10.864 33.897 10.6133 34.313 10.112C34.729 9.60002 34.937 8.94402 34.937 8.14402Z" fill="white"/>
<path d="M39.9734 10.176C40.4427 10.656 41.0134 10.896 41.6854 10.896C42.3574 10.896 42.9227 10.656 43.3814 10.176C43.8507 9.68535 44.0854 9.00802 44.0854 8.14402C44.0854 7.29068 43.8507 6.62402 43.3814 6.14402C42.9227 5.65335 42.3574 5.40802 41.6854 5.40802C41.0134 5.40802 40.4427 5.65335 39.9734 6.14402C39.5147 6.62402 39.2854 7.29068 39.2854 8.14402C39.2854 9.00802 39.5147 9.68535 39.9734 10.176ZM38.8534 5.23202C39.6 4.45335 40.544 4.06402 41.6854 4.06402C42.8267 4.06402 43.7654 4.45335 44.5014 5.23202C45.248 6.00002 45.6214 6.97068 45.6214 8.14402C45.6214 9.32802 45.2534 10.3093 44.5174 11.088C43.7814 11.856 42.8374 12.24 41.6854 12.24C40.5334 12.24 39.5894 11.856 38.8534 11.088C38.1174 10.3093 37.7494 9.32802 37.7494 8.14402C37.7494 6.97068 38.1174 6.00002 38.8534 5.23202Z" fill="white"/>
<path d="M51.8176 4.22402V5.82402C51.5936 5.79202 51.375 5.77602 51.1616 5.77602C49.7536 5.77602 49.0496 6.56535 49.0496 8.14402V12H47.5456V4.30402H49.0176V5.64802C49.487 4.66668 50.255 4.17602 51.3216 4.17602C51.4923 4.17602 51.6576 4.19202 51.8176 4.22402Z" fill="white"/>
<path d="M55.8429 1.87202V4.30402H57.5069V5.66402H55.8429V9.66402C55.8429 10.0267 55.9229 10.2933 56.0829 10.464C56.2535 10.6347 56.5309 10.72 56.9149 10.72C57.1389 10.72 57.3362 10.6987 57.5069 10.656V11.936C57.2509 12.032 56.9095 12.08 56.4829 12.08C55.8215 12.08 55.2989 11.888 54.9149 11.504C54.5309 11.12 54.3389 10.5813 54.3389 9.88802V5.66402H52.8669V4.30402H53.2829C53.6775 4.30402 53.9709 4.19735 54.1629 3.98402C54.3655 3.76002 54.4669 3.47202 54.4669 3.12002V1.87202H55.8429Z" fill="white"/>
</svg>
