<?xml version="1.0" encoding="UTF-8" standalone="no"?><svg width="32" height="32" viewBox="0 0 32 32" fill="none" xmlns="http://www.w3.org/2000/svg">
<path d="M8.35354 8.35355C8.5488 8.15829 8.86538 8.15829 9.06065 8.35355L23.9099 23.2028C24.1052 23.3981 24.1052 23.7146 23.9099 23.9099C23.7146 24.1052 23.398 24.1052 23.2028 23.9099L8.35354 9.06066C8.15828 8.8654 8.15828 8.54882 8.35354 8.35355Z" fill="white"/>
<path d="M8.35355 23.9099C8.15829 23.7146 8.15829 23.3981 8.35355 23.2028L15.7782 15.7782L23.2028 8.35355C23.3981 8.15829 23.7146 8.15829 23.9099 8.35355C24.1052 8.54882 24.1052 8.8654 23.9099 9.06066L9.06066 23.9099C8.8654 24.1052 8.54882 24.1052 8.35355 23.9099Z" fill="white"/>
</svg>
