<?xml version="1.0" encoding="UTF-8" standalone="no"?><svg width="38" height="34" viewBox="0 0 38 34" fill="none" xmlns="http://www.w3.org/2000/svg">
<path d="M6.50274 20.685C8.24303 15.316 10.2727 10.0417 12.552 4.87339C13.0918 3.64953 13.6627 2.43491 14.2491 1.23184C14.4435 0.833195 14.3764 0.940378 14.3381 1.61765C14.2479 3.21428 14.0631 5.65262 13.9549 7.03938C13.5633 12.0579 13.1248 17.0733 12.5931 22.0794C12.2365 25.437 12.0055 28.967 11.1697 32.2595C11.1374 32.3871 11.1394 32.5687 11.0192 32.625C10.6497 32.7981 10.8384 31.8349 10.7865 31.4337C10.4816 29.0757 10.0396 26.8024 8.8636 24.6921C8.16667 23.4414 7.11197 21.8904 5.6679 21.3619C4.738 21.0216 3.91962 21.5873 3.2523 22.1403C2.584 22.6941 1.97691 23.3363 1.49363 24.0559C1.30565 24.3357 0.770816 24.9985 1.11042 24.9899C1.65152 24.9762 3.16099 24.1259 3.45759 23.9949C6.28297 22.7475 9.08303 21.4024 12.0388 20.4752C14.8663 19.5882 17.8319 19.0521 20.7911 19.3448" stroke="white" stroke-width="0.8" stroke-linecap="round" stroke-linejoin="round"/>
<path d="M19.9246 17.7144C19.5691 16.5876 19.1145 15.0131 17.6824 15.46C17.2917 15.5819 15.1574 17.6424 16.3671 17.7841C17.1221 17.8726 20.2781 14.5425 20.3126 15.3438C20.3511 16.2357 20.9976 17.9302 21.52 16.3432C21.6564 15.9287 21.9271 16.5668 22.1452 16.6221C22.6513 16.7505 22.8153 16.2446 23.0292 15.8784C23.5248 15.0299 23.4173 14.8594 23.4173 16.2735C23.4173 17.6559 23.4679 19.01 23.5682 20.3872C23.6308 21.2478 23.8547 22.663 23.5251 23.4783C22.9344 24.9389 22.1258 21.4996 22.1021 21.2703C21.8476 18.8005 23.2828 17.0766 24.8402 15.4368C25.3275 14.9237 25.1169 15.8089 25.1636 16.1108C25.2169 16.4552 25.5453 15.5444 25.7026 15.2393C26.0714 14.5236 26.4889 13.8683 26.9316 13.2056C27.4841 12.3783 27.4822 12.5973 27.4921 13.5775C27.5012 14.4834 27.6083 15.5707 27.2981 16.4362C27.2038 16.6991 26.8237 16.7105 26.9531 16.4594C27.2549 15.8739 28.1199 15.3853 28.5485 14.9022C29.688 13.6182 30.5916 12.0351 30.7477 10.2308C30.8132 9.47247 30.665 7.26923 30.4027 7.97637C30.0666 8.88234 30.3851 10.7285 30.4027 11.695C30.4186 12.5727 30.4817 13.4266 30.7045 14.2747C30.7904 14.6014 30.9699 15.4698 31.1357 15.1812C31.4696 14.5998 31.4944 13.787 31.8687 13.1592C32.058 12.8418 32.1485 13.7382 32.3216 13.9959C33.7615 16.1409 35.3675 15.6476 37 14.3677" stroke="white" stroke-width="0.8" stroke-linecap="round" stroke-linejoin="round"/>
</svg>
